<svg xmlns="http://www.w3.org/2000/svg" xmlns:xlink="http://www.w3.org/1999/xlink" width="42" height="42" viewBox="0 0 42 42"><defs><linearGradient id="a" x1="0.448" x2="0.452" y2="0.47" gradientUnits="objectBoundingBox"><stop offset="0" stop-color="#ffe9c9"/><stop offset="1" stop-color="#eed4b1" stop-opacity="0"/></linearGradient></defs><g transform="translate(-55 -45)"><rect width="42" height="42" transform="translate(55 45)" fill="none"/><path d="M0,20A20,20,0,1,1,20,40,20,20,0,0,1,0,20Zm.832,0a19.026,19.026,0,0,0,1.506,7.459,19.217,19.217,0,0,0,10.2,10.2A19.159,19.159,0,0,0,39.168,20a19.174,19.174,0,0,0-36.83-7.463A19.024,19.024,0,0,0,.832,20Z" transform="translate(56 46)" fill="url(#a)"/></g></svg>