<svg xmlns="http://www.w3.org/2000/svg" xmlns:xlink="http://www.w3.org/1999/xlink" width="504.33" height="75.689" viewBox="0 0 504.33 75.689"><defs><clipPath id="a"><rect width="504.33" height="75.689" fill="#fff"/></clipPath></defs><rect width="65.805" height="21.604" transform="translate(437.496 54.084)" fill="#c8102e"/><g clip-path="url(#a)"><path d="M580.887,80.1c0-1.037-.028-1.906-.08-2.6q.4,1.3.749,2.2l2.621,6.631h1.406l2.6-6.321q.419-1.031.851-2.5c-.068,1.016-.105,1.885-.105,2.6v6.211h1.834V75.579h-2.484l-2.548,6.263a21.674,21.674,0,0,0-.758,2.2,15.816,15.816,0,0,0-.725-2.2l-2.477-6.263h-2.573V86.312h1.692Z" transform="translate(-122.971 -16.046)" fill="#fff"/><path d="M601.615,75.571h-1.786L595.619,86.31h1.888l1.053-2.877h4.3l1.071,2.877h1.989Zm-2.511,6.4,1.139-3.089c.165-.473.316-.94.451-1.393q.23.773.469,1.408l1.148,3.074Z" transform="translate(-126.458 -16.044)" fill="#fff"/><path d="M611.73,85.765a5.687,5.687,0,0,0,2.8.654,9.021,9.021,0,0,0,2.014-.23,9.455,9.455,0,0,0,1.931-.66V81.013h-4.258v1.421h2.48V84.6a5.567,5.567,0,0,1-1,.258,6.255,6.255,0,0,1-1.069.089,3.417,3.417,0,0,1-1.95-.518,3.014,3.014,0,0,1-1.139-1.407,5.411,5.411,0,0,1-.356-2.038,4.9,4.9,0,0,1,.467-2.239,3.26,3.26,0,0,1,1.3-1.406,3.906,3.906,0,0,1,1.964-.476,6.436,6.436,0,0,1,2.784.7l.467-1.409a7.683,7.683,0,0,0-1.566-.562,7.515,7.515,0,0,0-1.768-.2,6.234,6.234,0,0,0-2.836.636,4.72,4.72,0,0,0-2,1.894,6.038,6.038,0,0,0-.734,3.073,6.232,6.232,0,0,0,.636,2.892,4.446,4.446,0,0,0,1.823,1.879" transform="translate(-129.357 -16.006)" fill="#fff"/><path d="M574.624,75.574h-2.917l-1.068,1.605,1.427,2.177Z" transform="translate(-121.155 -16.045)" fill="#fff"/><path d="M630.4,84.771h-4.525V81.5h4.053v-1.43h-4.053V77.109h4.3l.175-1.526h-6.318v10.73h6.216Z" transform="translate(-132.489 -16.047)" fill="#fff"/><path d="M562.337,86.33h2.836l3.669-5.6L565.3,75.576h-2.981L566.1,80.85Z" transform="translate(-119.388 -16.046)" fill="#fff"/><path d="M574.612,88.209l-2.554-3.782-1.43,2.18,1.068,1.6Z" transform="translate(-121.152 -17.925)" fill="#fff"/><path d="M28.515,17.624H8.753V.222H0V43.359H8.753V25.841H28.515V43.359h8.752V.222H28.515Z" transform="translate(0 -0.047)" fill="#fff"/><path d="M91.133,24.911c0,7.014-3.482,10.759-9.8,10.759-6.36,0-9.863-3.851-9.863-11.057V.247H62.714V24.911C62.714,37.045,69.456,44,81.211,44c11.867,0,18.673-7.088,18.673-19.449V.222H91.133Z" transform="translate(-13.315 -0.047)" fill="#fff"/><path d="M214.925,29.882,205.13.214h-7.142l-9.793,29.667L178.667.24h-9.315l15.031,43.117h7.249l9.808-28.324,9.806,28.324h7.309L233.55.24h-9.076Z" transform="translate(-35.956 -0.045)" fill="#fff"/><path d="M268.447,24.8h15.92V16.946h-15.92V8.116h23.108V.259H259.813V43.339h32.573V35.482H268.447Z" transform="translate(-55.162 -0.055)" fill="#fff"/><rect width="8.634" height="43.079" transform="translate(247.663 0.172)" fill="#fff"/><path d="M148.139,34.354l3.873,8.979h9.173L142.251.222h-7.712l-19,43.111h8.933l3.929-8.979Zm-9.892-23.216,6.638,15.439H131.653Z" transform="translate(-24.53 -0.047)" fill="#fff"/><path d="M371.3,14.619q-.721-1.76-1.542-4.162t-1.338-4.133q.113,1.672.2,4.715t.086,5.788v26.5H363.73V.118h7.142l10.973,27.093a78.832,78.832,0,0,1,3.4,9.726q1.267-4.028,3.6-9.637L400.046.118h6.969V43.323h-5.356v-26.5q0-3.67.4-10.5a95.4,95.4,0,0,1-3.311,9.161l-11.577,27.9h-4.234Z" transform="translate(-77.225 -0.025)" fill="#fff"/><path d="M449.93,46.17a30.247,30.247,0,0,1-.461-4.446,14.3,14.3,0,0,1-4.507,3.581,13.005,13.005,0,0,1-6.149,1.463A10.531,10.531,0,0,1,434,45.692a8.019,8.019,0,0,1-3.37-3.192,10.071,10.071,0,0,1-1.237-5.162,9.316,9.316,0,0,1,3.225-7.414q3.226-2.79,10.713-2.79a44.781,44.781,0,0,1,5.962.418v-.806q0-4.953-1.929-6.953a7.179,7.179,0,0,0-5.415-2,18.027,18.027,0,0,0-4.795.686,24.842,24.842,0,0,0-4.421,1.641l-.922-4.207a23.39,23.39,0,0,1,4.68-1.626,25.115,25.115,0,0,1,6.235-.761,14.28,14.28,0,0,1,6.35,1.283,8.839,8.839,0,0,1,4.061,4.356,19.655,19.655,0,0,1,1.454,8.3V40.113q0,2,.231,6.057Zm-4.68-5.028a11.994,11.994,0,0,0,4.046-3.207V31.013a47.26,47.26,0,0,0-5.328-.328q-5.156,0-7.157,1.731a5.84,5.84,0,0,0-2,4.654,5.3,5.3,0,0,0,1.426,4.088,5.452,5.452,0,0,0,3.845,1.313,11.2,11.2,0,0,0,5.17-1.328" transform="translate(-91.167 -2.872)" fill="#fff"/><path d="M475.542,42.4q-2.2-2.328-2.2-7.728V16.379h-4.09l.72-3.73,3.542-.536.4-7.43,4.665-.776v8.206H487.8l-.72,4.267h-8.5V34.132a7.532,7.532,0,0,0,1.152,4.654,4.3,4.3,0,0,0,3.6,1.461,13.781,13.781,0,0,0,4.435-.924l.922,3.849a15.872,15.872,0,0,1-3.053,1.1,14.927,14.927,0,0,1-3.744.447,8.325,8.325,0,0,1-6.35-2.328" transform="translate(-99.628 -0.829)" fill="#fff"/><path d="M523.8,30.356H503.153q.057,6,2.635,9t7.445,3a19.852,19.852,0,0,0,8.726-2.059l1.238,3.939a22.327,22.327,0,0,1-4.939,1.879,25,25,0,0,1-6.063.657,15.066,15.066,0,0,1-7.876-1.94,12.185,12.185,0,0,1-4.9-5.595,21.171,21.171,0,0,1-1.656-8.787,21.946,21.946,0,0,1,1.728-9.1,13.156,13.156,0,0,1,4.825-5.819,12.844,12.844,0,0,1,7.128-2,11.312,11.312,0,0,1,6.926,2.059,12.118,12.118,0,0,1,4.1,5.415,19.7,19.7,0,0,1,1.325,7.3Zm-5.328-3.879q-.288-4.415-2.174-6.639a6.294,6.294,0,0,0-5.055-2.223,6.742,6.742,0,0,0-5.2,2.252,12.05,12.05,0,0,0-2.664,6.609Z" transform="translate(-105.683 -2.872)" fill="#fff"/><path d="M572.211,21.155,559.252,0h6.25l9.705,16.739L585.315,0h6.019L578.461,20.886,592.4,43.205h-6.365L575.322,25.063,564.2,43.205h-6.019Z" transform="translate(-118.511 0)" fill="#fff"/><path d="M626.327,4.625H604.584L605.159,0h27.533l-.576,3.312L615.989,43.2h-5.674Z" transform="translate(-128.362 0)" fill="#fff"/></g></svg>