<svg xmlns="http://www.w3.org/2000/svg" width="42" height="42" viewBox="0 0 42 42"><g transform="translate(-1314 -236)"><rect width="42" height="42" transform="translate(1314 236)" fill="none"/><path d="M8.877,2.016A8.992,8.992,0,1,0,18,11.007a1.321,1.321,0,0,0-2.643,0,6.357,6.357,0,0,1-12.715,0c0-3.465,2.916-6.512,6.246-6.346A.116.116,0,0,1,9,4.778V5.872a.8.8,0,0,0,1.31.612l3.039-2.536a.8.8,0,0,0,0-1.223L10.31.187A.8.8,0,0,0,9,.8V1.892c0,.121-.079.123-.123.124" transform="translate(1326 246)" fill="#fff" opacity="0.999"/></g></svg>